<svg width="34" height="73" viewBox="0 0 34 73" fill="none" xmlns="http://www.w3.org/2000/svg">
<path d="M0.899994 64.4C0.899994 59.4 1.69999 55.1333 3.29999 51.6C4.89999 48 7.76669 44.0333 11.9 39.7C15.9667 35.3667 18.7667 31.6667 20.3 28.6C21.9 25.5333 22.7 22.3333 22.7 19C22.7 16 22.2 13.9333 21.2 12.8C20.2667 11.6 18.8667 11 17 11C13.2 11 11.3 13.3 11.3 17.9V25.4H0.899994V18.6C0.899994 12.9333 2.29999 8.6 5.09999 5.6C7.89999 2.53333 11.9667 1 17.3 1C22.6333 1 26.7 2.53333 29.5 5.6C32.3 8.6 33.7 12.9333 33.7 18.6C33.7 22.8667 32.6667 27.0333 30.6 31.1C28.6 35.1667 25.1 39.8333 20.1 45.1C16.8333 48.5667 14.6333 51.4 13.5 53.6C12.3667 55.7333 11.8 58.0333 11.8 60.5V62H32.7V72H0.899994V64.4Z" stroke="url(#paint0_linear_52_71)" stroke-opacity="0.2" stroke-width="0.5" stroke-miterlimit="10"/>
<defs>
<linearGradient id="paint0_linear_52_71" x1="0.618822" y1="36.5216" x2="33.9269" y2="36.5216" gradientUnits="userSpaceOnUse">
<stop stop-color="#152C33"/>
<stop offset="0.034695" stop-color="#15353C"/>
<stop offset="0.0924247" stop-color="#154F56"/>
<stop offset="0.166" stop-color="#15787F"/>
<stop offset="0.2518" stop-color="#14B1B7"/>
<stop offset="0.3034" stop-color="#14D7DD"/>
<stop offset="0.3442" stop-color="#14C3C9"/>
<stop offset="0.4279" stop-color="#148F95"/>
<stop offset="0.5462" stop-color="#153C43"/>
<stop offset="0.5674" stop-color="#152C33"/>
<stop offset="0.7778" stop-color="#14D7DD"/>
<stop offset="0.9944" stop-color="#152C33"/>
</linearGradient>
</defs>
</svg>
