<svg width="36" height="53" viewBox="0 0 36 53" fill="none" xmlns="http://www.w3.org/2000/svg">
<path d="M35.3 21.9V20C35.3 8 29.3 1.20001 17.8 1.20001C6.29999 1.20001 0.299988 8 0.299988 20V24.1H11.4V19.3C11.4 14 13.8 11.9 17.5 11.9C21.2 11.9 23.6 13.7 23.6 20.4V24.6C23.6 30.6 20.9 32.5 16.5 32.5H12V43.2H16C21.2 43.2 23.5 45.6 23.7 52H35.5C35.3 44.9 32.9 39.7 27.3 37.3C32.8 34.9 35.3 29.9 35.3 21.9Z" stroke="url(#paint0_linear_40_48)" stroke-width="0.5" stroke-miterlimit="10"/>
<defs>
<linearGradient id="paint0_linear_40_48" x1="0.0499877" y1="26.585" x2="35.6" y2="26.585" gradientUnits="userSpaceOnUse">
<stop stop-color="#152C33"/>
<stop offset="0.034695" stop-color="#15353C"/>
<stop offset="0.0924247" stop-color="#154F56"/>
<stop offset="0.166" stop-color="#15787F"/>
<stop offset="0.2518" stop-color="#14B1B7"/>
<stop offset="0.3034" stop-color="#14D7DD"/>
<stop offset="0.3442" stop-color="#14C3C9"/>
<stop offset="0.4279" stop-color="#148F95"/>
<stop offset="0.5462" stop-color="#153C43"/>
<stop offset="0.5674" stop-color="#152C33"/>
<stop offset="0.7778" stop-color="#14D7DD"/>
<stop offset="0.9944" stop-color="#152C33"/>
</linearGradient>
</defs>
</svg>
