<svg width="35" height="74" viewBox="0 0 35 74" fill="none" xmlns="http://www.w3.org/2000/svg">
<path d="M17.3 73C11.9 73 7.76696 71.4667 4.89996 68.4C2.03296 65.3333 0.599976 61 0.599976 55.4V19.2C0.599976 7.06666 6.19996 1 17.4 1C22.733 1 26.8 2.53333 29.6 5.6C32.4 8.6 33.8 12.9333 33.8 18.6V19.9H23.4V17.9C23.4 13.3 21.5 11 17.7 11C15.633 11 14.1 11.6333 13.1 12.9C12.1 14.1667 11.6 16.4 11.6 19.6V33H11.8C13.733 28.9333 17.067 26.9 21.8 26.9C25.8 26.9 28.833 28.2667 30.9 31C32.967 33.7333 34 37.7 34 42.9V55.4C34 61 32.567 65.3333 29.7 68.4C26.833 71.4667 22.7 73 17.3 73ZM17.3 63C21.1 63 23 60.7333 23 56.2V43.8C23 39.2 21.1 36.9 17.3 36.9C13.5 36.9 11.6 39.2 11.6 43.8V56.2C11.6 60.7333 13.5 63 17.3 63Z" stroke="url(#paint0_linear_52_75)" stroke-opacity="0.2" stroke-width="0.5" stroke-miterlimit="10"/>
<defs>
<linearGradient id="paint0_linear_52_75" x1="0.31366" y1="37.022" x2="34.231" y2="37.022" gradientUnits="userSpaceOnUse">
<stop stop-color="#152C33"/>
<stop offset="0.034695" stop-color="#15353C"/>
<stop offset="0.0924247" stop-color="#154F56"/>
<stop offset="0.166" stop-color="#15787F"/>
<stop offset="0.2518" stop-color="#14B1B7"/>
<stop offset="0.3034" stop-color="#14D7DD"/>
<stop offset="0.3442" stop-color="#14C3C9"/>
<stop offset="0.4279" stop-color="#148F95"/>
<stop offset="0.5462" stop-color="#153C43"/>
<stop offset="0.5674" stop-color="#152C33"/>
<stop offset="0.7778" stop-color="#14D7DD"/>
<stop offset="0.9944" stop-color="#152C33"/>
</linearGradient>
</defs>
</svg>
