<svg width="36" height="74" viewBox="0 0 36 74" fill="none" xmlns="http://www.w3.org/2000/svg">
<path d="M18 73C12.467 73 8.20001 71.5333 5.20001 68.6C2.26701 65.6 0.799988 61.3 0.799988 55.7V49.5C0.799988 46.0333 1.367 43.1333 2.5 40.8C3.633 38.4 5.467 36.5333 8 35.2V35C5.667 33.7333 3.93299 32 2.79999 29.8C1.73299 27.5333 1.20001 24.6667 1.20001 21.2V18.3C1.20001 12.7 2.633 8.43333 5.5 5.5C8.433 2.5 12.6 1 18 1C23.4 1 27.533 2.5 30.4 5.5C33.333 8.43333 34.8 12.7 34.8 18.3V21.2C34.8 27.8667 32.533 32.4667 28 35V35.2C30.533 36.5333 32.367 38.4 33.5 40.8C34.633 43.1333 35.2 46.0333 35.2 49.5V55.7C35.2 61.3 33.7 65.6 30.7 68.6C27.767 71.5333 23.533 73 18 73ZM18 30.5C21.867 30.5 23.8 28.1667 23.8 23.5V18C23.8 13.3333 21.867 11 18 11C14.133 11 12.2 13.3333 12.2 18V23.5C12.2 28.1667 14.133 30.5 18 30.5ZM18 63C22.133 63 24.2 60.3667 24.2 55.1V48.4C24.2 43.1333 22.133 40.5 18 40.5C13.867 40.5 11.8 43.1333 11.8 48.4V55.1C11.8 60.3667 13.867 63 18 63Z" stroke="url(#paint0_linear_52_77)" stroke-opacity="0.2" stroke-width="0.5" stroke-miterlimit="10"/>
<defs>
<linearGradient id="paint0_linear_52_77" x1="0.5051" y1="37.022" x2="35.438" y2="37.022" gradientUnits="userSpaceOnUse">
<stop stop-color="#152C33"/>
<stop offset="0.034695" stop-color="#15353C"/>
<stop offset="0.0924247" stop-color="#154F56"/>
<stop offset="0.166" stop-color="#15787F"/>
<stop offset="0.2518" stop-color="#14B1B7"/>
<stop offset="0.3034" stop-color="#14D7DD"/>
<stop offset="0.3442" stop-color="#14C3C9"/>
<stop offset="0.4279" stop-color="#148F95"/>
<stop offset="0.5462" stop-color="#153C43"/>
<stop offset="0.5674" stop-color="#152C33"/>
<stop offset="0.7778" stop-color="#14D7DD"/>
<stop offset="0.9944" stop-color="#152C33"/>
</linearGradient>
</defs>
</svg>
