<svg width="35" height="74" viewBox="0 0 35 74" fill="none" xmlns="http://www.w3.org/2000/svg">
<path d="M17.6 73C12.267 73 8.19999 71.5 5.39999 68.5C2.59999 65.4333 1.20001 61.0667 1.20001 55.4V54.1H11.6V56.1C11.6 60.7 13.5 63 17.3 63C19.367 63 20.9 62.3667 21.9 61.1C22.9 59.8333 23.4 57.6 23.4 54.4V41H23.2C21.267 45.0667 17.933 47.1 13.2 47.1C9.20001 47.1 6.16701 45.7333 4.10001 43C2.03301 40.2667 1 36.3 1 31.1V18.6C1 13 2.43299 8.66666 5.29999 5.6C8.16699 2.53333 12.3 1 17.7 1C23.1 1 27.233 2.53333 30.1 5.6C32.967 8.66666 34.4 13 34.4 18.6V54.8C34.4 66.9333 28.8 73 17.6 73ZM17.7 37.1C21.5 37.1 23.4 34.8 23.4 30.2V17.8C23.4 13.2667 21.5 11 17.7 11C13.9 11 12 13.2667 12 17.8V30.2C12 34.8 13.9 37.1 17.7 37.1Z" stroke="url(#paint0_linear_52_78)" stroke-opacity="0.2" stroke-width="0.5" stroke-miterlimit="10"/>
<defs>
<linearGradient id="paint0_linear_52_78" x1="0.713684" y1="37.022" x2="34.6311" y2="37.022" gradientUnits="userSpaceOnUse">
<stop stop-color="#152C33"/>
<stop offset="0.034695" stop-color="#15353C"/>
<stop offset="0.0924247" stop-color="#154F56"/>
<stop offset="0.166" stop-color="#15787F"/>
<stop offset="0.2518" stop-color="#14B1B7"/>
<stop offset="0.3034" stop-color="#14D7DD"/>
<stop offset="0.3442" stop-color="#14C3C9"/>
<stop offset="0.4279" stop-color="#148F95"/>
<stop offset="0.5462" stop-color="#153C43"/>
<stop offset="0.5674" stop-color="#152C33"/>
<stop offset="0.7778" stop-color="#14D7DD"/>
<stop offset="0.9944" stop-color="#152C33"/>
</linearGradient>
</defs>
</svg>
