<svg width="35" height="52" viewBox="0 0 35 52" fill="none" xmlns="http://www.w3.org/2000/svg">
<g opacity="0.15">
<path d="M17.7 1C6.89998 1 1 7.39998 1 18.6V31.4C1 41.7 5.09998 47.4 13.2 47.4C18.1 47.4 21.5 45.2 23.4 41.2V51.5H34.4V18.6C34.4 7.39998 28.5 1 17.7 1ZM23.4 30.5C23.4 35.5 21.2 37.4 17.7 37.4C14.2 37.4 12 35.5 12 30.5V17.9C12 12.9 14.2 11.1 17.7 11.1C21.2 11.1 23.4 12.9 23.4 17.9V30.5Z" stroke="url(#paint0_linear_51_41)" stroke-width="0.5" stroke-miterlimit="10"/>
</g>
<defs>
<linearGradient id="paint0_linear_51_41" x1="0.78" y1="26.265" x2="34.69" y2="26.265" gradientUnits="userSpaceOnUse">
<stop stop-color="#152C33"/>
<stop offset="0.034695" stop-color="#15353C"/>
<stop offset="0.0924247" stop-color="#154F56"/>
<stop offset="0.166" stop-color="#15787F"/>
<stop offset="0.2518" stop-color="#14B1B7"/>
<stop offset="0.3034" stop-color="#14D7DD"/>
<stop offset="0.3442" stop-color="#14C3C9"/>
<stop offset="0.4279" stop-color="#148F95"/>
<stop offset="0.5462" stop-color="#153C43"/>
<stop offset="0.5674" stop-color="#152C33"/>
<stop offset="0.7778" stop-color="#14D7DD"/>
<stop offset="0.9944" stop-color="#152C33"/>
</linearGradient>
</defs>
</svg>
