<svg width="35" height="52" viewBox="0 0 35 52" fill="none" xmlns="http://www.w3.org/2000/svg">
<g opacity="0.15">
<path d="M22.2 26.2C17.3 26.2 13.9 28.4 12 32.4V19.6C12 12.9 14.2 11 18.1 11C21.6 11 23.8 12.9 23.8 17.9V20.4H34.2V18.6C34.2 7.40001 28.6 1 17.8 1C6.40002 1 1 7.40001 1 19.2V51.6H12V43.1C12 38.1 14.2 36.2 17.7 36.2C21.2 36.2 23.4 38.1 23.4 43.1V51.6H34.4V42.2C34.4 31.9 30.3 26.2 22.2 26.2Z" stroke="url(#paint0_linear_51_23)" stroke-width="0.5" stroke-miterlimit="10"/>
</g>
<defs>
<linearGradient id="paint0_linear_51_23" x1="0.72" y1="26.285" x2="34.63" y2="26.285" gradientUnits="userSpaceOnUse">
<stop stop-color="#152C33"/>
<stop offset="0.034695" stop-color="#15353C"/>
<stop offset="0.0924247" stop-color="#154F56"/>
<stop offset="0.166" stop-color="#15787F"/>
<stop offset="0.2518" stop-color="#14B1B7"/>
<stop offset="0.3034" stop-color="#14D7DD"/>
<stop offset="0.3442" stop-color="#14C3C9"/>
<stop offset="0.4279" stop-color="#148F95"/>
<stop offset="0.5462" stop-color="#153C43"/>
<stop offset="0.5674" stop-color="#152C33"/>
<stop offset="0.7778" stop-color="#14D7DD"/>
<stop offset="0.9944" stop-color="#152C33"/>
</linearGradient>
</defs>
</svg>
