<svg width="34" height="74" viewBox="0 0 34 74" fill="none" xmlns="http://www.w3.org/2000/svg">
<path d="M16.7 73C11.3 73 7.19999 71.5 4.39999 68.5C1.66699 65.5 0.299988 61.2 0.299988 55.6V49.9H10.7V56.1C10.7 60.7 12.6 63 16.4 63C18.267 63 19.667 62.4333 20.6 61.3C21.6 60.1 22.1 58.0333 22.1 55.1V49.4C22.1 46.2 21.533 43.9333 20.4 42.6C19.267 41.2 17.433 40.5 14.9 40.5H11.2V30.5H15.2C17.4 30.5 19.033 29.9333 20.1 28.8C21.233 27.6667 21.8 25.7667 21.8 23.1V18C21.8 15.6 21.3 13.8333 20.3 12.7C19.3 11.5667 17.967 11 16.3 11C12.767 11 11 13.1667 11 17.5V22.1H0.599983V18.4C0.599983 12.8 1.96698 8.5 4.69998 5.5C7.49998 2.5 11.5 1 16.7 1C21.967 1 25.967 2.5 28.7 5.5C31.433 8.43333 32.8 12.7 32.8 18.3V20.8C32.8 24.6 32.167 27.6667 30.9 30C29.633 32.2667 27.667 33.9 25 34.9V35.1C27.867 36.1667 29.933 37.9 31.2 40.3C32.467 42.7 33.1 45.7667 33.1 49.5V55.7C33.1 61.3 31.7 65.6 28.9 68.6C26.167 71.5333 22.1 73 16.7 73Z" stroke="url(#paint0_linear_52_72)" stroke-opacity="0.2" stroke-width="0.5" stroke-miterlimit="10"/>
<defs>
<linearGradient id="paint0_linear_52_72" x1="0.0188154" y1="37.022" x2="33.3269" y2="37.022" gradientUnits="userSpaceOnUse">
<stop stop-color="#152C33"/>
<stop offset="0.034695" stop-color="#15353C"/>
<stop offset="0.0924247" stop-color="#154F56"/>
<stop offset="0.166" stop-color="#15787F"/>
<stop offset="0.2518" stop-color="#14B1B7"/>
<stop offset="0.3034" stop-color="#14D7DD"/>
<stop offset="0.3442" stop-color="#14C3C9"/>
<stop offset="0.4279" stop-color="#148F95"/>
<stop offset="0.5462" stop-color="#153C43"/>
<stop offset="0.5674" stop-color="#152C33"/>
<stop offset="0.7778" stop-color="#14D7DD"/>
<stop offset="0.9944" stop-color="#152C33"/>
</linearGradient>
</defs>
</svg>
