<?xml version="1.0" standalone="no"?>
<!DOCTYPE svg PUBLIC "-//W3C//DTD SVG 20010904//EN"
 "http://www.w3.org/TR/2001/REC-SVG-20010904/DTD/svg10.dtd">
<svg version="1.0" xmlns="http://www.w3.org/2000/svg"
 width="117.000000pt" height="117.000000pt" viewBox="0 0 117.000000 117.000000"
 preserveAspectRatio="xMidYMid meet">
<metadata>
Created by potrace 1.14, written by Peter Selinger 2001-2017
</metadata>
<g transform="translate(0.000000,117.000000) scale(0.100000,-0.100000)"
fill="#000000" stroke="none">
<path d="M9 929 c-11 -8 -10 -9 5 -7 10 2 21 -3 24 -11 3 -8 0 -11 -7 -7 -7 5
-9 1 -5 -9 4 -9 9 -14 12 -11 2 3 19 -2 36 -11 17 -10 35 -16 39 -15 4 1 3 -6
-2 -16 -9 -17 -7 -19 14 -16 15 1 23 -2 19 -8 -7 -10 27 -39 38 -32 4 3 5 -4
3 -16 -2 -11 1 -23 7 -26 7 -4 8 -2 4 4 -4 7 -2 12 3 12 6 0 11 -4 11 -8 0 -5
7 -17 15 -28 15 -19 15 -19 9 1 -4 17 -3 16 8 -3 8 -12 18 -19 23 -15 4 4 5 2
1 -5 -4 -7 -1 -15 8 -18 9 -3 16 -14 16 -23 0 -14 2 -14 10 -1 8 12 10 10 10
-8 0 -13 4 -21 9 -18 4 3 17 -2 27 -10 10 -9 14 -13 7 -10 -6 4 -15 1 -19 -6
-4 -7 -4 -10 1 -6 4 4 15 2 23 -5 13 -10 14 -9 7 2 -6 11 -4 13 10 7 15 -5 16
-4 6 8 -10 12 -8 13 10 9 17 -5 20 -3 14 7 -6 10 -4 12 8 7 12 -4 14 -2 10 10
-4 9 -2 14 3 11 11 -6 45 28 36 36 -3 3 2 6 12 6 11 0 14 4 10 12 -5 7 -2 9 9
5 11 -4 14 -2 10 9 -3 9 0 14 8 12 8 -2 13 3 11 10 -1 6 3 11 9 10 6 -2 14 3
17 11 3 9 0 11 -9 6 -11 -6 -12 -5 -2 5 10 11 8 17 -9 31 -11 10 -23 17 -27
15 -3 -2 -12 2 -19 10 -7 8 -10 14 -7 14 4 0 0 7 -9 15 -8 8 -22 15 -31 15 -9
0 -13 5 -10 10 3 6 -1 10 -10 10 -9 0 -19 9 -22 20 -5 20 -12 21 -187 20 -101
-1 -189 -6 -197 -11z"/>
<path d="M780 925 c11 -13 10 -14 -4 -9 -10 4 -18 0 -22 -10 -3 -9 -11 -13
-18 -9 -6 4 -5 -1 3 -10 12 -15 12 -17 -1 -12 -10 4 -17 -1 -21 -16 -4 -15
-11 -20 -22 -15 -9 3 -13 2 -10 -4 3 -6 1 -10 -6 -10 -7 0 -9 -3 -6 -6 8 -9
-33 -45 -43 -39 -4 3 -10 -2 -13 -9 -3 -8 -1 -17 6 -20 7 -3 2 -3 -10 -1 -12
3 -25 0 -29 -6 -5 -8 -3 -9 5 -4 10 5 10 3 0 -13 -7 -11 -18 -18 -25 -15 -9 3
-11 -3 -7 -19 4 -18 3 -20 -6 -8 -10 13 -15 8 -12 -12 0 -5 -4 -8 -9 -8 -6 0
-28 -18 -49 -39 -22 -22 -43 -37 -47 -33 -5 4 -2 -1 5 -11 12 -15 12 -17 -5
-12 -10 3 -5 -1 11 -9 17 -8 34 -11 39 -6 5 5 19 5 32 0 15 -6 24 -5 28 3 3 9
5 9 5 0 1 -7 8 -13 16 -13 8 0 15 6 15 13 0 9 3 8 9 -2 7 -11 9 -11 14 0 4 10
6 10 6 2 1 -7 6 -13 12 -13 5 0 7 5 3 12 -4 7 -3 8 5 4 17 -11 111 -13 118 -3
3 4 13 1 23 -8 14 -12 20 -13 26 -4 4 8 3 10 -4 5 -22 -13 -12 3 30 48 22 25
48 46 56 46 8 0 12 6 8 15 -3 8 -2 14 2 14 20 -3 33 2 27 11 -3 6 1 10 10 10
10 0 13 5 9 12 -5 8 -2 9 11 4 15 -5 16 -4 5 9 -7 9 -9 15 -4 14 21 -4 35 2
28 12 -4 8 1 9 17 5 13 -3 18 -3 12 0 -19 8 -16 27 3 20 8 -3 12 -2 9 4 -3 6
-1 10 6 10 7 0 9 3 6 6 -9 9 33 45 44 38 5 -3 6 2 3 10 -3 9 3 19 16 26 18 10
21 10 14 -2 -6 -11 -5 -11 9 1 9 7 14 18 10 24 -4 6 0 8 10 4 9 -3 16 -3 16 1
-3 21 2 32 13 26 6 -4 8 -3 4 4 -4 7 -74 11 -203 12 -176 1 -195 -1 -183 -15z"/>
<path d="M75 850 c3 -5 8 -10 11 -10 2 0 4 5 4 10 0 6 -5 10 -11 10 -5 0 -7
-4 -4 -10z"/>
<path d="M1050 809 c0 -5 5 -7 10 -4 6 3 10 8 10 11 0 2 -4 4 -10 4 -5 0 -10
-5 -10 -11z"/>
<path d="M842 617 c-31 -33 -27 -42 4 -10 14 14 23 27 21 29 -2 2 -13 -6 -25
-19z"/>
<path d="M425 530 c-3 -5 -4 -14 0 -19 6 -11 -41 -8 -52 2 -3 4 -11 7 -17 7
-6 0 -4 -5 4 -10 13 -8 13 -10 -2 -10 -9 0 -20 -5 -24 -12 -5 -7 -3 -8 6 -3 8
5 11 4 6 -3 -4 -6 -13 -9 -20 -6 -8 3 -16 -4 -19 -15 -3 -12 -10 -21 -17 -21
-6 0 -8 5 -4 12 4 7 3 8 -5 4 -9 -6 -9 -11 0 -22 9 -11 7 -14 -11 -14 -15 0
-20 -5 -17 -14 3 -8 -1 -13 -11 -12 -9 0 -21 -9 -27 -21 -7 -13 -15 -20 -18
-16 -4 3 -7 -2 -7 -11 0 -12 -5 -16 -14 -13 -11 4 -13 1 -9 -10 5 -12 3 -14
-7 -8 -10 6 -12 4 -6 -10 6 -16 4 -16 -11 -4 -11 9 -14 10 -9 2 4 -8 2 -13 -4
-13 -6 0 -8 -5 -4 -12 5 -8 2 -9 -9 -5 -9 3 -19 1 -23 -5 -5 -7 -2 -8 6 -3 10
6 12 4 7 -8 -5 -14 15 -15 191 -16 108 0 191 3 185 5 -19 8 -16 27 3 20 12 -5
15 -2 10 10 -5 14 -4 15 9 4 13 -11 14 -10 9 5 -6 14 -4 16 6 10 10 -6 12 -4
7 8 -4 12 -2 14 10 10 11 -4 14 -2 9 5 -4 7 -1 12 8 12 9 0 16 5 16 11 0 5 -5
7 -12 3 -7 -4 -8 -3 -4 5 6 9 11 9 24 -1 9 -7 13 -8 10 -3 -8 14 7 40 23 40 7
0 14 6 17 14 3 9 0 11 -8 6 -9 -5 -11 -4 -6 4 4 6 11 9 16 6 11 -7 80 61 80
80 0 19 -17 28 -26 14 -4 -7 -3 -9 3 -6 5 3 10 -1 10 -10 0 -13 -4 -12 -18 5
-16 20 -36 31 -26 15 3 -5 -6 -9 -19 -9 -15 -1 -21 2 -17 10 4 7 1 6 -9 -1 -8
-7 -18 -10 -21 -6 -4 3 -7 1 -7 -6 0 -9 -5 -8 -15 3 -9 8 -25 13 -38 10 -12
-3 -31 -7 -42 -8 -11 -1 -26 -6 -34 -10 -10 -6 -12 -5 -7 2 4 7 2 12 -4 12 -7
0 -10 7 -6 15 6 17 0 20 -9 5z m120 -29 c-9 -8 -36 -10 -30 -2 2 4 11 8 20 8
8 0 13 -3 10 -6z m-301 -119 c3 -5 -1 -9 -9 -9 -8 0 -12 4 -9 9 3 4 7 8 9 8 2
0 6 -4 9 -8z"/>
</g>
</svg>
